PathFileType	4	(X/Y/Z)	C:\Users\italobelli\Desktop\GitHub\PTbot_officialCBL\Personal_Results\FLX01_noisy2.trc
DataRate	CameraRate	NumFrames	NumMarkers	Units	OrigDataRate	OrigDataStartFrame	OrigNumFrames
106.533333	106.533333	34	9	m	106.533333	501	800
Frame#	Time		gu		centelbow		EpL		centpxt8		centijc7		ij		ts		aa		ai
			X1	Y1	Z1	X2	Y2	Z2	X3	Y3	Z3	X4	Y4	Z4	X5	Y5	Z5	X6	Y6	Z6	X7	Y7	Z7	X8	Y8	Z8	X9	Y9	Z9

501	4.6934	-0.087994	0.05592	0.13069	0.13033	0.059491	0.21836	0.12192	0.089774	0.22662	-0.046816	-0.15316	-0.008669	-0.046816	0.031938	-0.008669	0	0	0	-0.15597	-0.0028797	0.054082	-0.11493	0.067988	0.13904	-0.13248	-0.089703	0.12115
502	4.7028	-0.087552	0.055254	0.13135	0.13039	0.054544	0.21895	0.12243	0.084833	0.22754	-0.046816	-0.15316	-0.008669	-0.046816	0.031938	-0.008669	0	0	0	-0.1559	-0.0025315	0.054037	-0.11471	0.067325	0.13969	-0.13267	-0.090087	0.12018
503	4.7121	-0.087106	0.054569	0.13203	0.13042	0.049564	0.21954	0.12291	0.079851	0.22845	-0.046816	-0.15316	-0.008669	-0.046816	0.031938	-0.008669	0	0	0	-0.15582	-0.0021823	0.053992	-0.11449	0.066652	0.14035	-0.13286	-0.09047	0.11921
504	4.7215	-0.086656	0.053868	0.1327	0.13041	0.044557	0.22012	0.12335	0.074834	0.22936	-0.046816	-0.15316	-0.008669	-0.046816	0.031938	-0.008669	0	0	0	-0.15574	-0.0018325	0.053947	-0.11427	0.065969	0.14101	-0.13305	-0.090849	0.11824
505	4.7309	-0.086204	0.05315	0.13337	0.13036	0.039527	0.2207	0.12376	0.069788	0.23027	-0.046816	-0.15316	-0.008669	-0.046816	0.031938	-0.008669	0	0	0	-0.15566	-0.0014823	0.053902	-0.11406	0.065278	0.14167	-0.13325	-0.091226	0.11726
506	4.7403	-0.08575	0.052418	0.13405	0.13027	0.034479	0.22128	0.12414	0.064717	0.23116	-0.046816	-0.15316	-0.008669	-0.046816	0.031938	-0.008669	0	0	0	-0.15557	-0.0011318	0.053858	-0.11384	0.064579	0.14232	-0.13344	-0.091599	0.11627
507	4.7497	-0.085296	0.051672	0.13472	0.13015	0.02942	0.22184	0.12448	0.059628	0.23205	-0.046816	-0.15316	-0.008669	-0.046816	0.031938	-0.008669	0	0	0	-0.15549	-0.00078146	0.053813	-0.11362	0.063874	0.14298	-0.13363	-0.091968	0.11528
508	4.7591	-0.08484	0.050915	0.13539	0.13	0.024353	0.22241	0.1248	0.054524	0.23292	-0.046816	-0.15316	-0.008669	-0.046816	0.031938	-0.008669	0	0	0	-0.1554	-0.00043137	0.053769	-0.11341	0.063163	0.14363	-0.13382	-0.092332	0.11429
509	4.7685	-0.084385	0.050145	0.13606	0.12981	0.019284	0.22296	0.12507	0.049412	0.23378	-0.046816	-0.15316	-0.008669	-0.046816	0.031938	-0.008669	0	0	0	-0.15531	-8.1805e-05	0.053726	-0.1132	0.062446	0.14428	-0.13402	-0.09269	0.1133
510	4.7778	-0.083931	0.049366	0.13673	0.12958	0.014218	0.2235	0.12531	0.044297	0.23463	-0.046816	-0.15316	-0.008669	-0.046816	0.031938	-0.008669	0	0	0	-0.15522	0.00026699	0.053683	-0.11299	0.061726	0.14493	-0.13421	-0.093042	0.1123
511	4.7872	-0.083479	0.048579	0.13739	0.12932	0.0091608	0.22403	0.12552	0.039184	0.23546	-0.046816	-0.15316	-0.008669	-0.046816	0.031938	-0.008669	0	0	0	-0.15512	0.00061477	0.053641	-0.11278	0.061003	0.14557	-0.1344	-0.093388	0.11131
512	4.7966	-0.08303	0.047783	0.13805	0.12903	0.0041164	0.22455	0.12569	0.034079	0.23627	-0.046816	-0.15316	-0.008669	-0.046816	0.031938	-0.008669	0	0	0	-0.15503	0.00096131	0.053599	-0.11257	0.060277	0.1462	-0.1346	-0.093726	0.11032
513	4.806	-0.082583	0.046981	0.1387	0.1287	-0.00090952	0.22506	0.12583	0.028986	0.23706	-0.046816	-0.15316	-0.008669	-0.046816	0.031938	-0.008669	0	0	0	-0.15493	0.0013064	0.053558	-0.11236	0.05955	0.14683	-0.13479	-0.094057	0.10934
514	4.8154	-0.08214	0.046174	0.13935	0.12834	-0.005912	0.22555	0.12594	0.023912	0.23783	-0.046816	-0.15316	-0.008669	-0.046816	0.031938	-0.008669	0	0	0	-0.15483	0.0016497	0.053518	-0.11216	0.058823	0.14745	-0.13499	-0.094379	0.10835
515	4.8248	-0.081702	0.045362	0.13999	0.12795	-0.010886	0.22603	0.126	0.018861	0.23858	-0.046816	-0.15316	-0.008669	-0.046816	0.031938	-0.008669	0	0	0	-0.15473	0.001991	0.053479	-0.11195	0.058095	0.14806	-0.13518	-0.094691	0.10738
516	4.8342	-0.08127	0.044548	0.14063	0.12752	-0.015826	0.22649	0.12603	0.013838	0.23931	-0.046816	-0.15316	-0.008669	-0.046816	0.031938	-0.008669	0	0	0	-0.15463	0.0023302	0.053441	-0.11175	0.05737	0.14866	-0.13538	-0.094995	0.10641
517	4.8436	-0.080843	0.043732	0.14125	0.12707	-0.020727	0.22694	0.12603	0.0088501	0.24001	-0.046816	-0.15316	-0.008669	-0.046816	0.031938	-0.008669	0	0	0	-0.15453	0.0026669	0.053404	-0.11154	0.056646	0.14926	-0.13558	-0.095287	0.10545
518	4.8529	-0.080423	0.042915	0.14187	0.12658	-0.025585	0.22737	0.12599	0.0039013	0.24068	-0.046816	-0.15316	-0.008669	-0.046816	0.031938	-0.008669	0	0	0	-0.15443	0.0030009	0.053367	-0.11134	0.055925	0.14984	-0.13577	-0.095569	0.1045
519	4.8623	-0.080011	0.042099	0.14247	0.12606	-0.030393	0.22777	0.12591	-0.0010027	0.24133	-0.046816	-0.15316	-0.008669	-0.046816	0.031938	-0.008669	0	0	0	-0.15433	0.003332	0.053332	-0.11114	0.055208	0.15041	-0.13597	-0.09584	0.10356
520	4.8717	-0.079606	0.041284	0.14307	0.1255	-0.035148	0.22816	0.1258	-0.0058568	0.24194	-0.046816	-0.15316	-0.008669	-0.046816	0.031938	-0.008669	0	0	0	-0.15423	0.0036599	0.053299	-0.11095	0.054496	0.15097	-0.13617	-0.096098	0.10263
521	4.8811	-0.079211	0.040473	0.14366	0.12492	-0.039843	0.22853	0.12565	-0.010655	0.24252	-0.046816	-0.15316	-0.008669	-0.046816	0.031938	-0.008669	0	0	0	-0.15412	0.0039844	0.053266	-0.11075	0.05379	0.15151	-0.13637	-0.096344	0.10171
522	4.8905	-0.078825	0.039665	0.14423	0.1243	-0.044474	0.22887	0.12546	-0.015393	0.24307	-0.046816	-0.15316	-0.008669	-0.046816	0.031938	-0.008669	0	0	0	-0.15402	0.0043053	0.053235	-0.11055	0.05309	0.15204	-0.13656	-0.096576	0.10081
523	4.8999	-0.07845	0.038863	0.14479	0.12366	-0.049035	0.22919	0.12524	-0.020066	0.24359	-0.046816	-0.15316	-0.008669	-0.046816	0.031938	-0.008669	0	0	0	-0.15392	0.0046223	0.053205	-0.11036	0.052398	0.15256	-0.13676	-0.096794	0.099922
524	4.9093	-0.078085	0.038067	0.14534	0.12299	-0.053522	0.22949	0.12498	-0.024666	0.24407	-0.046816	-0.15316	-0.008669	-0.046816	0.031938	-0.008669	0	0	0	-0.15382	0.0049352	0.053177	-0.11017	0.051714	0.15306	-0.13696	-0.096998	0.099051
525	4.9186	-0.077733	0.037278	0.14587	0.12228	-0.057929	0.22976	0.12468	-0.02919	0.24451	-0.046816	-0.15316	-0.008669	-0.046816	0.031938	-0.008669	0	0	0	-0.15371	0.0052437	0.05315	-0.10997	0.051039	0.15354	-0.13716	-0.097187	0.098197
526	4.928	-0.077393	0.036499	0.14639	0.12155	-0.062251	0.23	0.12434	-0.033633	0.24491	-0.046816	-0.15316	-0.008669	-0.046816	0.031938	-0.008669	0	0	0	-0.15361	0.0055476	0.053125	-0.10978	0.050375	0.15401	-0.13736	-0.09736	0.097361
527	4.9374	-0.077066	0.035729	0.14689	0.12079	-0.066484	0.23021	0.12396	-0.037988	0.24528	-0.046816	-0.15316	-0.008669	-0.046816	0.031938	-0.008669	0	0	0	-0.15351	0.0058467	0.053101	-0.10959	0.049721	0.15445	-0.13756	-0.097516	0.096545
528	4.9468	-0.076752	0.03497	0.14737	0.12	-0.070621	0.2304	0.12355	-0.04225	0.2456	-0.046816	-0.15316	-0.008669	-0.046816	0.031938	-0.008669	0	0	0	-0.15341	0.0061406	0.05308	-0.10941	0.049079	0.15488	-0.13776	-0.097656	0.09575
529	4.9562	-0.076454	0.034224	0.14784	0.11918	-0.074659	0.23055	0.1231	-0.046415	0.24587	-0.046816	-0.15316	-0.008669	-0.046816	0.031938	-0.008669	0	0	0	-0.15331	0.0064293	0.05306	-0.10922	0.04845	0.15529	-0.13796	-0.097778	0.094977
530	4.9656	-0.076171	0.03349	0.14829	0.11833	-0.078591	0.23068	0.1226	-0.050476	0.2461	-0.046816	-0.15316	-0.008669	-0.046816	0.031938	-0.008669	0	0	0	-0.15322	0.0067124	0.053042	-0.10904	0.047835	0.15568	-0.13817	-0.097882	0.094227
531	4.975	-0.075904	0.032772	0.14872	0.11745	-0.082413	0.23077	0.12207	-0.054429	0.24629	-0.046816	-0.15316	-0.008669	-0.046816	0.031938	-0.008669	0	0	0	-0.15312	0.0069897	0.053026	-0.10885	0.047234	0.15605	-0.13837	-0.097967	0.093501
532	4.9844	-0.075653	0.032069	0.14913	0.11655	-0.08612	0.23083	0.1215	-0.058268	0.24642	-0.046816	-0.15316	-0.008669	-0.046816	0.031938	-0.008669	0	0	0	-0.15302	0.007261	0.053012	-0.10867	0.046649	0.15639	-0.13857	-0.098033	0.092801
533	4.9937	-0.07542	0.031383	0.14952	0.11562	-0.089706	0.23085	0.12089	-0.061988	0.24651	-0.046816	-0.15316	-0.008669	-0.046816	0.031938	-0.008669	0	0	0	-0.15293	0.007526	0.053	-0.10849	0.04608	0.15671	-0.13877	-0.098079	0.092127
534	5.0031	-0.075204	0.030713	0.14989	0.11467	-0.093174	0.23084	0.12024	-0.065591	0.24655	-0.046816	-0.15316	-0.008669	-0.046816	0.031938	-0.008669	0	0	0	-0.15284	0.0077848	0.05299	-0.10831	0.045526	0.15701	-0.13898	-0.098105	0.091479
